<?xml version="1.0" standalone="no"?>
<!DOCTYPE svg PUBLIC "-//W3C//DTD SVG 20010904//EN"
 "http://www.w3.org/TR/2001/REC-SVG-20010904/DTD/svg10.dtd">
<svg version="1.0" xmlns="http://www.w3.org/2000/svg"
 width="700.000000pt" height="700.000000pt" viewBox="0 0 700.000000 700.000000"
 preserveAspectRatio="xMidYMid meet">
<metadata>
Created by potrace 1.14, written by Peter Selinger 2001-2017
</metadata>
<g transform="translate(0.000000,700.000000) scale(0.100000,-0.100000)"
fill="#000000" stroke="none">
<path d="M1479 6536 c-2 -2 -47 -6 -99 -10 -119 -8 -143 -11 -260 -42 -102
-27 -236 -80 -313 -126 -26 -15 -50 -28 -52 -28 -7 0 -138 -94 -171 -122 -52
-45 -130 -123 -147 -148 -26 -38 -22 -85 12 -122 25 -28 36 -33 75 -33 42 0
50 5 108 61 179 172 366 277 589 327 180 41 336 39 561 -8 159 -33 395 -165
523 -292 67 -66 94 -83 136 -83 55 0 99 48 99 109 0 54 -106 159 -285 282
-187 129 -465 221 -689 228 -39 1 -73 4 -77 6 -3 3 -8 3 -10 1z"/>
<path d="M5447 6534 c-1 -1 -33 -4 -71 -8 -38 -4 -72 -8 -75 -11 -4 -2 -25 -6
-46 -8 -87 -10 -254 -67 -375 -128 -136 -68 -325 -211 -393 -298 -38 -48 -37
-100 3 -139 55 -56 108 -45 190 37 207 209 517 339 821 343 87 1 216 -9 230
-18 4 -2 24 -6 44 -10 101 -16 287 -95 401 -170 70 -46 96 -67 187 -154 64
-60 72 -65 114 -65 38 0 49 5 74 33 34 37 38 84 12 122 -17 25 -95 104 -149
150 -83 71 -239 164 -359 215 -59 25 -175 64 -175 60 0 -3 -11 0 -24 5 -13 5
-43 12 -67 15 -24 4 -46 8 -50 11 -11 6 -285 23 -292 18z"/>
<path d="M1435 6133 c-283 -17 -561 -157 -726 -364 -68 -85 -28 -182 74 -182
36 0 46 6 99 62 128 134 253 210 412 251 106 27 249 29 361 6 148 -31 294
-115 413 -239 69 -72 87 -82 136 -73 43 8 77 45 83 90 4 28 -2 45 -26 80 -43
61 -156 161 -248 219 -75 46 -222 108 -293 123 -19 4 -42 9 -50 11 -51 11
-176 19 -235 16z"/>
<path d="M5467 6134 c-1 -1 -29 -4 -62 -7 -141 -12 -316 -76 -446 -163 -104
-69 -236 -203 -245 -248 -8 -44 19 -95 60 -114 50 -25 86 -8 172 77 146 145
282 213 469 237 264 35 508 -58 703 -267 29 -32 64 -59 79 -62 73 -14 142 49
129 117 -8 40 -109 154 -197 222 -136 104 -324 181 -492 200 -48 6 -166 11
-170 8z"/>
<path d="M1377 5724 c-175 -31 -333 -141 -420 -294 -33 -59 -29 -105 13 -142
22 -20 41 -28 68 -28 47 0 73 18 106 74 27 46 102 118 148 142 184 96 409 40
522 -130 45 -69 55 -75 114 -78 51 -2 102 50 102 102 0 29 -25 75 -72 135
-138 174 -358 257 -581 219z"/>
<path d="M5432 5728 c-185 -25 -376 -157 -444 -307 -17 -37 -19 -50 -9 -81 13
-45 47 -70 95 -70 52 0 62 7 110 74 24 33 52 68 63 76 102 85 215 118 335 99
107 -17 221 -94 275 -187 32 -54 58 -72 105 -72 27 0 47 8 70 29 64 57 32 148
-94 273 -131 130 -318 191 -506 166z"/>
<path d="M1421 5190 c-53 -13 -113 -61 -138 -110 -25 -50 -29 -91 -39 -355 -3
-93 -7 -201 -9 -240 -1 -38 -6 -151 -9 -250 -4 -99 -9 -214 -11 -255 -2 -41
-7 -151 -10 -245 -4 -93 -8 -204 -10 -245 -2 -41 -6 -151 -10 -245 -3 -93 -8
-208 -10 -255 -2 -47 -6 -157 -10 -245 -4 -88 -8 -196 -10 -240 -2 -44 -7
-156 -10 -250 -3 -93 -8 -171 -11 -174 -2 -3 -197 -5 -432 -6 -412 -1 -429 -2
-482 -23 -58 -23 -117 -73 -156 -132 -48 -73 -51 -107 -50 -665 1 -491 3 -523
21 -575 28 -78 110 -160 190 -190 l60 -23 3215 0 3215 0 57 22 c79 31 148 95
184 173 l28 63 2 525 c1 576 -1 597 -57 680 -41 60 -106 108 -174 129 -49 15
-105 17 -461 17 -261 -1 -408 3 -412 9 -4 6 -7 28 -8 50 -4 102 -15 369 -19
450 -2 50 -7 162 -10 250 -3 88 -8 198 -10 245 -2 47 -6 159 -10 250 -3 91 -8
206 -10 255 -3 50 -7 160 -10 245 -10 259 -14 359 -20 500 -9 206 -14 330 -20
500 -7 206 -16 242 -74 300 -90 90 -224 89 -313 -2 -59 -60 -60 -70 -73 -413
-3 -93 -8 -201 -10 -240 -2 -38 -7 -144 -10 -235 -3 -91 -8 -208 -10 -260 -2
-52 -6 -160 -10 -240 -8 -220 -14 -372 -21 -515 -3 -71 -7 -177 -9 -235 -4
-95 -9 -238 -20 -485 -2 -49 -7 -164 -10 -255 -4 -91 -9 -167 -11 -169 -10
-10 -3366 -6 -3372 4 -4 6 -7 24 -8 40 -2 50 -15 385 -19 470 -2 44 -6 154
-10 244 -3 90 -8 203 -10 250 -2 47 -7 156 -10 241 -3 85 -8 198 -10 250 -2
52 -7 163 -10 245 -3 83 -7 195 -10 250 -2 55 -7 172 -10 260 -3 88 -8 198
-10 245 -3 47 -7 157 -10 245 -6 194 -16 241 -60 293 -56 64 -142 92 -224 72z"/>
</g>
</svg>
